<svg width="48" height="48" viewBox="0 0 48 48" fill="none" xmlns="http://www.w3.org/2000/svg">
<g clip-path="url(#clip0_1142_75698)">
<path d="M48 0H0V48H48V0Z" fill="#1C1C1D"/>
<path d="M10 19C11.1046 19 12 18.1046 12 17C12 15.8954 11.1046 15 10 15C8.89543 15 8 15.8954 8 17C8 18.1046 8.89543 19 10 19Z" fill="#E8EAED"/>
<path d="M22 19C23.1046 19 24 18.1046 24 17C24 15.8954 23.1046 15 22 15C20.8954 15 20 15.8954 20 17C20 18.1046 20.8954 19 22 19Z" fill="#E8EAED"/>
<path d="M29 19C30.1046 19 31 18.1046 31 17C31 15.8954 30.1046 15 29 15C27.8954 15 27 15.8954 27 17C27 18.1046 27.8954 19 29 19Z" fill="#E8EAED"/>
<path d="M38.5 24H9.5C8.67157 24 8 24.6716 8 25.5C8 26.3284 8.67157 27 9.5 27H38.5C39.3284 27 40 26.3284 40 25.5C40 24.6716 39.3284 24 38.5 24Z" fill="#E8EAED"/>
<path d="M31.5 29H9.5C8.67157 29 8 29.6716 8 30.5C8 31.3284 8.67157 32 9.5 32H31.5C32.3284 32 33 31.3284 33 30.5C33 29.6716 32.3284 29 31.5 29Z" fill="#E8EAED"/>
</g>
<defs>
<clipPath id="clip0_1142_75698">
<rect width="48" height="48" rx="5" fill="white"/>
</clipPath>
</defs>
</svg>
